<svg xmlns="http://www.w3.org/2000/svg" fill-rule="evenodd" clip-rule="evenodd">
<defs>
<style>:root svg:not(:target) {display: none;}</style>
</defs>


<svg id="arrow-simple" viewBox="0 0 8 8" fill="none" stroke="currentcolor" stroke-width="0.6">
	<path d="M3 1L6 4L3 7"/>
	<!--<path id="down" d="M1 3L4 6L7 3"/>
	<path id="left" d="M5 1L2 4L5 7"/>
	<path id="up" d="M1 5L4 2L7 5"/>-->
</svg>


<svg id="logo" viewBox="0 0 96 96" fill="currentcolor">
	<path class="logo-path" d="M29 88C33 87.5 40 85 46 78C46 78 42 79 35 79C35 79 43 76 49 73C51 70 54 63 56 51C56 51 52.5 52 47 52C47 52 53 49.5 56 47L48 46C48 46 55 44 57 43C58.5 36 61 26 67 11C58 18 47 26 35 42C33 45 33 51 35 56L31 49C26 58 19 76 25 86C27 74 38 49 54 30C43 46 33 74 29 88Z"/>
	<circle cx="48" cy="48" r="45" fill="none" stroke="currentcolor" stroke-width="2"/>
</svg>


<svg id="burger" viewBox="0 0 8 8" fill="none" stroke="currentcolor" stroke-width="0.6" stroke-linecap="square">
	<path d="M1 2H7M1 4H7M1 6H7"/>
</svg>


<svg id="cross" viewBox="0 0 8 8" fill="none" stroke="currentcolor" stroke-width="0.6">
	<path d="M1 1L7 7M7 1L1 7"/>
</svg>


<svg id="telegram" viewBox="0 0 96 96" fill="currentcolor">
	<path d="M80 28C80.5 23 79 21 73 23C55 29 13 48 13 48C8.5 50 9 53 13 54L23.5 57C26.5 58 29 58 32 56L59 38C62 36 64 37 62 39L42.5 58C38 63 41 64 45 67L63 79C69 83 71.5 80 73 73C73 73 79 41 80 28Z"/>
</svg>


<svg id="vkontakte" viewBox="0 0 96 96" fill="currentcolor">
	<path d="M21 23H8C9 53 22 73 53 73V55C65 57 71 64 74 73H88C85 60 75 52 67 48C75 44 83 34 85 23H72C70 32 61 42 53 43V23H40V58C28 55 21 40 21 23Z"/>
</svg>


<svg id="instagram" viewBox="0 0 96 96" fill="currentcolor">
	<path fill-rule="evenodd" clip-rule="evenodd" d="M48 17C22 17 17 22 17 48C17 74 22 79 48 79C74 79 79 74 79 48C79 22 74 17 48 17ZM48 35C55 35 61 41 61 48C61 55 55 61 48 61C41 61 35 55 35 48C35 41 41 35 48 35ZM69 31C69 33 67.5 35 65 35C62.5 35 61 33 61 31C61 29 62.5 27 65 27C67.5 27 69 29 69 31Z"/>
</svg>


<svg id="whatsapp" viewBox="0 0 96 96" fill="currentcolor">
	<path d="M48 80C65.7 80 80 65.7 80 48C80 30.3 65.7 16 48 16C30.3 16 16 30.3 16 48C16 54.9 18.3 61.3 22 66.5L19 78L31 75C36 78.1 41.7 80 48 80ZM41.5 38.5C40.5 35.5 40 34 38 30.5C37 29 34.5 29.5 33 30.5C31 31.5 28.5 34.5 28.5 39C29 50 44 64 57 66C61.5 66.5 64 65.5 67 61C68 59 68 58 67 57C63.5 55 62.5 54.5 59 53C59 53 58 52.5 57 53.5C55.8 54.7 54 57 54 57C54 57 53 58 52 57.5C45 54 42 51 39 46C38 44.5 39 43 39 43C40 42 41 41 41 41C41 41 42 40 41.5 38.5Z"/>
</svg>


<svg id="lamp" viewBox="0 0 96 96" fill="currentcolor">
	<path d="M48 2C55.0001 2 55.0001 9 55.0001 9C58.0001 9 58.5001 10 59.0001 12L60.0001 22C60.0001 22 62.8633 22.0771 65.0001 23C67.1368 23.9229 68 24 69.0001 28C70.0001 32 76.5001 63 77.0001 68C77.5001 73 77.0001 74.5 75 76C73 77.5 69 79 69 79L72 89C72 89 74 89.5 74 91.5C74 93.5 72 94 72 94H24C24 94 22 93.5 22 91.5C22 89.5 24 89 24 89L27 79C27 79 22.5001 78 21.0001 76C19.5001 74 18.5 73 19.0001 68C19.5001 63 26.0001 32 27.0001 28C28 24 29 24 31.0001 23C33.0001 22 36.0001 22 36.0001 22L37.0001 12C37.5001 10 38.0001 9 41.0001 9C41.0001 9 41 2 48 2ZM48.0001 5C44.0001 5 44.0001 9 44.0001 9H52.0001C52.0001 9 52.0001 5 48.0001 5ZM28.0001 57C28.0001 45 40.0001 34 40.0001 25C35.0001 25 33.5001 25 31.0001 28C28.5001 31 22.5001 63 22.0001 69C21.5 75 25.0001 75 29 76L36 72C36 72 28.0001 69 28.0001 57ZM65.0001 28C62.0025 24.6808 61.0001 25 56.0001 25C56.0001 34 68.0001 47 68.0001 57C68.0001 67 60 72 60 72L67 76C71.0001 75 74.5 74 74.0001 69C73.5001 64 67.9977 31.3192 65.0001 28ZM55.0001 36C53.0001 31 53.0001 24 48.0001 24C43.0001 24 43.0001 31 41.0001 36C39.0001 41 34.0001 47 34.0001 56C34.0001 65 38.0001 72 48.0001 72C58.0001 72 62 65 62 56C62 47 57.0001 41 55.0001 36Z"/>
</svg>


<svg id="dash-line" viewBox="0 0 700 700" fill="none" stroke="#ef6125" stroke-width="2" stroke-dasharray="16 16">
	<path d="M3 238C132 166 371 59 475 25C599 -16 676 80 524 144C372 208 -117 430 33 464C183 498 512 491 696 680"/>
</svg>


<svg id="dash-line-2" viewBox="0 0 888 332" fill="none" stroke="rgba(154,149,146,0.3)" stroke-width="2" stroke-dasharray="16 16">
	<path d="M7 14C51 2 154 -8 216 46C292 113 265 210 420 216C576 223 589 191 674 290C742 369 852 292 898 244"/>
</svg>


<!-- <svg id="photos" viewBox="0 0 32 32" fill="none" stroke="black" stroke-width="2">
	<path d="M26 5H2V23M6 9V27H30V9H6Z"/>
</svg> -->





</svg>
