<svg xmlns="http://www.w3.org/2000/svg" width="96" height="96" viewBox="0 0 96 96" fill="black">
	<path fill-rule="evenodd" clip-rule="evenodd" d="M48 2C55.0001 2 55.0001 9 55.0001 9C58.0001 9 58.5001 10 59.0001 12L60.0001 22C60.0001 22 62.8633 22.0771 65.0001 23C67.1368 23.9229 68 24 69.0001 28C70.0001 32 76.5001 63 77.0001 68C77.5001 73 77.0001 74.5 75 76C73 77.5 69 79 69 79L72 89C72 89 74 89.5 74 91.5C74 93.5 72 94 72 94H24C24 94 22 93.5 22 91.5C22 89.5 24 89 24 89L27 79C27 79 22.5001 78 21.0001 76C19.5001 74 18.5 73 19.0001 68C19.5001 63 26.0001 32 27.0001 28C28 24 29 24 31.0001 23C33.0001 22 36.0001 22 36.0001 22L37.0001 12C37.5001 10 38.0001 9 41.0001 9C41.0001 9 41 2 48 2ZM48.0001 5C44.0001 5 44.0001 9 44.0001 9H52.0001C52.0001 9 52.0001 5 48.0001 5ZM28.0001 57C28.0001 45 40.0001 34 40.0001 25C35.0001 25 33.5001 25 31.0001 28C28.5001 31 22.5001 63 22.0001 69C21.5 75 25.0001 75 29 76L36 72C36 72 28.0001 69 28.0001 57ZM65.0001 28C62.0025 24.6808 61.0001 25 56.0001 25C56.0001 34 68.0001 47 68.0001 57C68.0001 67 60 72 60 72L67 76C71.0001 75 74.5 74 74.0001 69C73.5001 64 67.9977 31.3192 65.0001 28ZM55.0001 36C53.0001 31 53.0001 24 48.0001 24C43.0001 24 43.0001 31 41.0001 36C39.0001 41 34.0001 47 34.0001 56C34.0001 65 38.0001 72 48.0001 72C58.0001 72 62 65 62 56C62 47 57.0001 41 55.0001 36Z"/>
</svg>
