<svg xmlns="http://www.w3.org/2000/svg" width="84" height="84" viewBox="0 0 84 84" fill="#FF6626">
	<path d="M75.9048 38.9279V38.0628C75.9048 36.9094 74.8798 35.9001 73.7084 35.9001C72.537 35.9001 71.512 36.9094 71.512 38.0628V38.9279V39.7929C71.512 40.9464 72.537 41.9556 73.7084 41.9556C74.8798 41.9556 75.9048 40.9464 75.9048 39.7929V38.9279Z" fill="#FF6626"/>
	<path d="M69.4619 38.9279V33.5933C69.4619 32.4399 68.4369 31.4307 67.2655 31.4307C66.0941 31.4307 65.0691 32.4399 65.0691 33.5933V38.9279V44.2625C65.0691 45.4159 66.0941 46.4251 67.2655 46.4251C68.4369 46.4251 69.4619 45.4159 69.4619 44.2625V38.9279Z" fill="#FF6626"/>
	<path d="M63.0191 38.928V19.8965C63.0191 18.7431 61.9941 17.7339 60.8226 17.7339C59.6512 17.7339 58.6262 18.7431 58.6262 19.8965V38.928V57.9594C58.6262 59.1128 59.6512 60.1221 60.8226 60.1221C61.9941 60.1221 63.0191 59.1128 63.0191 57.9594V38.928Z" fill="#FF6626"/>
	<path d="M82.4941 38.9278V38.6395C82.4941 37.486 81.4691 36.4768 80.2976 36.4768C79.1262 36.4768 78.1012 37.486 78.1012 38.6395V38.9278V39.2162C78.1012 40.3696 79.1262 41.3788 80.2976 41.3788C81.4691 41.3788 82.4941 40.3696 82.4941 39.2162V38.9278Z" fill="#FF6626"/>
	<path d="M4.74051 38.9278V38.6395C4.74051 37.486 3.71551 36.4768 2.54408 36.4768C1.37266 36.4768 0.347656 37.486 0.347656 38.6395V38.9278V39.2162C0.347656 40.3696 1.37266 41.3788 2.54408 41.3788C3.71551 41.3788 4.74051 40.3696 4.74051 39.2162V38.9278Z" fill="#FF6626"/>
	<path d="M56.5762 38.9279V7.64142C56.5762 6.488 55.5512 5.47876 54.3798 5.47876C53.2083 5.47876 52.1833 6.488 52.1833 7.64142V38.9279V70.2144C52.1833 71.3679 53.2083 72.3771 54.3798 72.3771C55.5512 72.3771 56.5762 71.3679 56.5762 70.2144V38.9279Z" fill="#FF6626"/>
	<path d="M50.1333 38.928V24.366C50.1333 23.2126 49.1083 22.2034 47.9369 22.2034C46.7655 22.2034 45.7405 23.2126 45.7405 24.366V38.928V53.4899C45.7405 54.6433 46.7655 55.6525 47.9369 55.6525C49.1083 55.6525 50.1333 54.6433 50.1333 53.4899V38.928Z" fill="#FF6626"/>
	<path d="M43.6905 38.9278V37.0535C43.6905 35.9001 42.6655 34.8909 41.494 34.8909C40.3226 34.8909 39.2976 35.9001 39.2976 37.0535V38.9278V40.8021C39.2976 41.9556 40.3226 42.9648 41.494 42.9648C42.6655 42.9648 43.6905 41.9556 43.6905 40.8021V38.9278Z" fill="#FF6626"/>
	<path d="M37.2477 38.928V21.4825C37.2477 20.3291 36.2227 19.3198 35.0513 19.3198C33.8799 19.3198 32.8549 20.3291 32.8549 21.4825V38.928V56.3734C32.8549 57.5268 33.8799 58.5361 35.0513 58.5361C36.2227 58.5361 37.2477 57.5268 37.2477 56.3734V38.928Z" fill="#FF6626"/>
	<path d="M30.8048 38.9279V9.80402C30.8048 8.6506 29.7798 7.64136 28.6084 7.64136C27.437 7.64136 26.412 8.6506 26.412 9.80402V38.9279V68.0517C26.412 69.2051 27.437 70.2144 28.6084 70.2144C29.7798 70.2144 30.8048 69.2051 30.8048 68.0517V38.9279Z" fill="#FF6626"/>
	<path d="M24.2155 38.9279V2.16266C24.2155 1.00924 23.1905 0 22.0191 0C20.8476 0 19.8226 1.00924 19.8226 2.16266V38.9279V75.8373C19.8226 76.9908 20.8476 78 22.0191 78C23.1905 78 24.2155 76.9908 24.2155 75.8373V38.9279Z" fill="#FF6626"/>
	<path d="M17.7726 38.9278V28.6912C17.7726 27.5378 16.7476 26.5286 15.5762 26.5286C14.4048 26.5286 13.3798 27.5378 13.3798 28.6912V38.9278V49.1644C13.3798 50.3178 14.4048 51.3271 15.5762 51.3271C16.7476 51.3271 17.7726 50.3178 17.7726 49.1644V38.9278Z" fill="#FF6626"/>
	<path d="M11.3297 38.9279V34.8909C11.3297 33.7375 10.3047 32.7283 9.13332 32.7283C7.96189 32.7283 6.93689 33.7375 6.93689 34.8909V38.9279V42.9649C6.93689 44.1183 7.96189 45.1275 9.13332 45.1275C10.3047 45.1275 11.3297 44.1183 11.3297 42.9649V38.9279Z" fill="#FF6626"/>
</svg>
