<svg xmlns="http://www.w3.org/2000/svg" width="96" height="96" viewBox="0 0 96 96" fill="currentcolor">
	<path fill-rule="evenodd" clip-rule="evenodd" d="M48 80C65.7 80 80 65.7 80 48C80 30.3 65.7 16 48 16C30.3 16 16 30.3 16 48C16 54.9 18.3 61.3 22 66.5L19 78L31 75C36 78.1 41.7 80 48 80ZM41.5 38.5C40.5 35.5 40 34 38 30.5C37 29 34.5 29.5 33 30.5C31 31.5 28.5 34.5 28.5 39C29 50 44 64 57 66C61.5 66.5 64 65.5 67 61C68 59 68 58 67 57C63.5 55 62.5 54.5 59 53C59 53 58 52.5 57 53.5C55.8 54.7 54 57 54 57C54 57 53 58 52 57.5C45 54 42 51 39 46C38 44.5 39 43 39 43C40 42 41 41 41 41C41 41 42 40 41.5 38.5Z"/>
</svg>
